<?xml version="1.0" encoding="UTF-8"?>
<!DOCTYPE svg PUBLIC "-//W3C//DTD SVG 1.1//EN" "http://www.w3.org/Graphics/SVG/1.1/DTD/svg11.dtd">
<svg xmlns="http://www.w3.org/2000/svg" version="1.1" width="150px" height="150px" style="shape-rendering:geometricPrecision; text-rendering:geometricPrecision; image-rendering:optimizeQuality; fill-rule:evenodd; clip-rule:evenodd" xmlns:xlink="http://www.w3.org/1999/xlink">
<g><path style="opacity:0.978" fill="#fd0000" d="M 61.5,-0.5 C 69.8333,-0.5 78.1667,-0.5 86.5,-0.5C 120.153,6.98666 140.653,27.6533 148,61.5C 151.724,103.064 134.224,131.231 95.5,146C 59.4678,154.441 30.9678,143.607 10,113.5C 4.99041,104.952 1.49041,95.9522 -0.5,86.5C -0.5,78.1667 -0.5,69.8333 -0.5,61.5C 7.16667,27.8333 27.8333,7.16667 61.5,-0.5 Z"/></g>
<g><path style="opacity:1" fill="#832d28" d="M 112.5,50.5 C 112.5,48.8333 112.5,47.1667 112.5,45.5C 112.5,44.5 112.5,43.5 112.5,42.5C 112.489,40.9826 111.823,39.8159 110.5,39C 107.112,38.3412 103.779,38.5078 100.5,39.5C 100.611,38.8826 100.944,38.3826 101.5,38C 112.851,35.515 116.518,39.6816 112.5,50.5 Z"/></g>
<g><path style="opacity:1" fill="#b7837d" d="M 79.5,40.5 C 81.6074,39.5318 83.9407,39.1984 86.5,39.5C 86.7678,41.099 86.4345,42.4324 85.5,43.5C 85.5,42.5 85.5,41.5 85.5,40.5C 83.5,40.5 81.5,40.5 79.5,40.5 Z"/></g>
<g><path style="opacity:1" fill="#851814" d="M 87.5,39.5 C 87.1667,39.5 86.8333,39.5 86.5,39.5C 83.9407,39.1984 81.6074,39.5318 79.5,40.5C 77.5853,40.2155 75.9187,40.5489 74.5,41.5C 73.8333,41.5 73.5,41.8333 73.5,42.5C 69.5358,39.9192 65.5358,39.9192 61.5,42.5C 60.8333,42.5 60.1667,42.5 59.5,42.5C 59.5,42.1667 59.5,41.8333 59.5,41.5C 61.3797,41.7709 62.713,41.1042 63.5,39.5C 71.6771,38.9086 79.6771,38.9086 87.5,39.5 Z"/></g>
<g><path style="opacity:1" fill="#711a16" d="M 36.5,41.5 C 40.5,41.5 44.5,41.5 48.5,41.5C 48.5,41.8333 48.5,42.1667 48.5,42.5C 47.8333,42.5 47.1667,42.5 46.5,42.5C 42.8019,42.5524 39.1352,42.8857 35.5,43.5C 35.8333,42.8333 36.1667,42.1667 36.5,41.5 Z"/></g>
<g><path style="opacity:1" fill="#2e2829" d="M 112.5,42.5 C 112.5,43.5 112.5,44.5 112.5,45.5C 109.745,44.043 106.745,43.043 103.5,42.5C 106.446,41.6789 109.446,41.6789 112.5,42.5 Z"/></g>
<g><path style="opacity:1" fill="#e9e1df" d="M 46.5,42.5 C 46.5,43.5 46.5,44.5 46.5,45.5C 44.1667,46.1667 41.8333,46.8333 39.5,47.5C 41.2646,48.4614 43.2646,48.7947 45.5,48.5C 45.5,49.5 45.5,50.5 45.5,51.5C 42.9179,51.0254 40.9179,51.6921 39.5,53.5C 39.5,54.8333 39.5,56.1667 39.5,57.5C 38.1667,57.5 36.8333,57.5 35.5,57.5C 35.5,52.8333 35.5,48.1667 35.5,43.5C 39.1352,42.8857 42.8019,42.5524 46.5,42.5 Z"/></g>
<g><path style="opacity:1" fill="#f3efed" d="M 48.5,41.5 C 52.1667,41.5 55.8333,41.5 59.5,41.5C 59.5,41.8333 59.5,42.1667 59.5,42.5C 59.5,43.1667 59.5,43.8333 59.5,44.5C 57.3926,45.4682 55.0593,45.8016 52.5,45.5C 51.9569,45.56 51.6236,45.8933 51.5,46.5C 53.7427,47.4742 56.076,47.8076 58.5,47.5C 58.5,48.5 58.5,49.5 58.5,50.5C 56.076,50.1924 53.7427,50.5258 51.5,51.5C 54.0865,52.48 56.7531,52.8134 59.5,52.5C 59.5,53.5 59.5,54.5 59.5,55.5C 58.8333,55.5 58.1667,55.5 57.5,55.5C 54.5,55.5 51.5,55.5 48.5,55.5C 48.5,51.1667 48.5,46.8333 48.5,42.5C 48.5,42.1667 48.5,41.8333 48.5,41.5 Z"/></g>
<g><path style="opacity:1" fill="#181412" d="M 73.5,45.5 C 73.5,46.1667 73.5,46.8333 73.5,47.5C 70.9583,46.3756 68.2916,45.5423 65.5,45C 68.1922,44.5702 70.8589,44.7369 73.5,45.5 Z"/></g>
<g><path style="opacity:1" fill="#281a1a" d="M 74.5,41.5 C 75.8333,42.8333 77.1667,44.1667 78.5,45.5C 76.8333,45.5 75.1667,45.5 73.5,45.5C 73.5,44.5 73.5,43.5 73.5,42.5C 73.5,41.8333 73.8333,41.5 74.5,41.5 Z"/></g>
<g><path style="opacity:1" fill="#9b1e19" d="M 89.5,37.5 C 93.1928,36.9443 95.8595,38.2776 97.5,41.5C 98.5178,40.8075 99.5178,40.1408 100.5,39.5C 99.962,41.1172 99.6287,42.7839 99.5,44.5C 99.7148,46.1788 99.0481,47.1788 97.5,47.5C 96.6011,44.9721 95.6011,42.4721 94.5,40C 91.6603,39.0339 89.6603,39.8672 88.5,42.5C 87.596,41.791 87.2627,40.791 87.5,39.5C 88.8333,39.5 89.5,38.8333 89.5,37.5 Z"/></g>
<g><path style="opacity:1" fill="#0d0505" d="M 59.5,44.5 C 60.8333,45.1667 60.8333,45.8333 59.5,46.5C 56.9407,46.8016 54.6074,46.4682 52.5,45.5C 55.0593,45.8016 57.3926,45.4682 59.5,44.5 Z"/></g>
<g><path style="opacity:1" fill="#dd0d0f" d="M 63.5,39.5 C 62.713,41.1042 61.3797,41.7709 59.5,41.5C 55.8333,41.5 52.1667,41.5 48.5,41.5C 44.5,41.5 40.5,41.5 36.5,41.5C 35.5041,41.4142 34.6708,41.7476 34,42.5C 33.8333,45 33.6667,47.5 33.5,50C 33.5248,52.9294 34.1914,55.4294 35.5,57.5C 35.62,58.5862 36.2867,59.2528 37.5,59.5C 38.7133,59.2528 39.38,58.5862 39.5,57.5C 41.6178,54.6533 44.2844,53.9866 47.5,55.5C 47.5,55.8333 47.5,56.1667 47.5,56.5C 47.5,56.8333 47.5,57.1667 47.5,57.5C 47.5,58.8333 47.5,60.1667 47.5,61.5C 45.1667,61.5 42.8333,61.5 40.5,61.5C 37.6122,60.9898 35.2789,61.6565 33.5,63.5C 32.3547,67.3112 32.1881,71.3112 33,75.5C 35.0386,76.9783 35.8719,78.9783 35.5,81.5C 37.2646,82.4614 39.2646,82.7947 41.5,82.5C 41.7373,83.791 41.404,84.791 40.5,85.5C 38.6283,83.9385 36.2949,82.9385 33.5,82.5C 30.1222,75.436 29.7888,68.2694 32.5,61C 32.6829,55.0199 32.3496,49.0199 31.5,43C 31.9574,42.586 32.2907,42.086 32.5,41.5C 42.8081,40.4136 53.1414,39.747 63.5,39.5 Z"/></g>
<g><path style="opacity:1" fill="#1a0a09" d="M 46.5,45.5 C 47.4614,47.2646 47.7947,49.2646 47.5,51.5C 47.1667,51.5 46.8333,51.5 46.5,51.5C 46.5,50.1667 46.5,48.8333 46.5,47.5C 44.1667,47.5 41.8333,47.5 39.5,47.5C 41.8333,46.8333 44.1667,46.1667 46.5,45.5 Z"/></g>
<g><path style="opacity:1" fill="#e9e6e5" d="M 73.5,42.5 C 73.5,43.5 73.5,44.5 73.5,45.5C 70.8589,44.7369 68.1922,44.5702 65.5,45C 68.2916,45.5423 70.9583,46.3756 73.5,47.5C 73.8342,50.188 73.1675,52.5214 71.5,54.5C 67.5676,56.3238 64.2343,55.6572 61.5,52.5C 64.1071,51.6816 66.7737,51.1816 69.5,51C 66.7084,50.4577 64.0417,49.6244 61.5,48.5C 61.5,46.5 61.5,44.5 61.5,42.5C 65.5358,39.9192 69.5358,39.9192 73.5,42.5 Z"/></g>
<g><path style="opacity:1" fill="#a70d11" d="M 36.5,41.5 C 36.1667,42.1667 35.8333,42.8333 35.5,43.5C 35.5,48.1667 35.5,52.8333 35.5,57.5C 34.1914,55.4294 33.5248,52.9294 33.5,50C 33.6667,47.5 33.8333,45 34,42.5C 34.6708,41.7476 35.5041,41.4142 36.5,41.5 Z"/></g>
<g><path style="opacity:1" fill="#8d7575" d="M 39.5,47.5 C 41.8333,47.5 44.1667,47.5 46.5,47.5C 46.5,48.8333 46.5,50.1667 46.5,51.5C 46.1667,51.5 45.8333,51.5 45.5,51.5C 45.5,50.5 45.5,49.5 45.5,48.5C 43.2646,48.7947 41.2646,48.4614 39.5,47.5 Z"/></g>
<g><path style="opacity:1" fill="#68252d" d="M 59.5,42.5 C 60.1667,42.5 60.8333,42.5 61.5,42.5C 61.5,44.5 61.5,46.5 61.5,48.5C 61.5386,49.7562 61.0386,50.7562 60,51.5C 59.5065,49.8659 59.3398,48.1992 59.5,46.5C 60.8333,45.8333 60.8333,45.1667 59.5,44.5C 59.5,43.8333 59.5,43.1667 59.5,42.5 Z"/></g>
<g><path style="opacity:1" fill="#f4efef" d="M 97.5,47.5 C 100.315,52.6605 98.6484,53.9938 92.5,51.5C 90.9704,51.6399 89.9704,52.3065 89.5,53.5C 88.1667,53.5 86.8333,53.5 85.5,53.5C 85.8333,51.5 86.1667,49.5 86.5,47.5C 87.9313,46.2196 88.5979,44.5529 88.5,42.5C 89.6603,39.8672 91.6603,39.0339 94.5,40C 95.6011,42.4721 96.6011,44.9721 97.5,47.5 Z"/></g>
<g><path style="opacity:1" fill="#575755" d="M 91.5,45.5 C 93.4646,45.9483 93.7979,46.9483 92.5,48.5C 91.6143,47.675 91.281,46.675 91.5,45.5 Z"/></g>
<g><path style="opacity:1" fill="#f2e9e7" d="M 79.5,40.5 C 81.5,40.5 83.5,40.5 85.5,40.5C 85.5,41.5 85.5,42.5 85.5,43.5C 84.5,43.5 83.5,43.5 82.5,43.5C 82.665,46.8499 82.4983,50.1832 82,53.5C 80.9887,54.3366 79.8221,54.67 78.5,54.5C 78.5,51.5 78.5,48.5 78.5,45.5C 77.1667,44.1667 75.8333,42.8333 74.5,41.5C 75.9187,40.5489 77.5853,40.2155 79.5,40.5 Z"/></g>
<g><path style="opacity:1" fill="#530e0b" d="M 86.5,39.5 C 86.8333,39.5 87.1667,39.5 87.5,39.5C 87.2627,40.791 87.596,41.791 88.5,42.5C 88.5979,44.5529 87.9313,46.2196 86.5,47.5C 86.1788,45.9519 85.1788,45.2852 83.5,45.5C 83.6646,48.5184 83.498,51.5184 83,54.5C 81.3499,57.106 79.8499,57.106 78.5,54.5C 79.8221,54.67 80.9887,54.3366 82,53.5C 82.4983,50.1832 82.665,46.8499 82.5,43.5C 83.5,43.5 84.5,43.5 85.5,43.5C 86.4345,42.4324 86.7678,41.099 86.5,39.5 Z"/></g>
<g><path style="opacity:1" fill="#f3f0ef" d="M 112.5,42.5 C 109.446,41.6789 106.446,41.6789 103.5,42.5C 106.745,43.043 109.745,44.043 112.5,45.5C 112.5,47.1667 112.5,48.8333 112.5,50.5C 109.028,52.2577 105.362,52.7577 101.5,52C 100.643,51.3109 99.9767,50.4776 99.5,49.5C 102.482,49.2867 105.482,48.9534 108.5,48.5C 105.072,47.9013 102.072,46.5679 99.5,44.5C 99.6287,42.7839 99.962,41.1172 100.5,39.5C 103.779,38.5078 107.112,38.3412 110.5,39C 111.823,39.8159 112.489,40.9826 112.5,42.5 Z"/></g>
<g><path style="opacity:1" fill="#6d5d5b" d="M 46.5,42.5 C 47.1667,42.5 47.8333,42.5 48.5,42.5C 48.5,46.8333 48.5,51.1667 48.5,55.5C 51.5,55.5 54.5,55.5 57.5,55.5C 54.3752,56.4794 51.0419,56.8128 47.5,56.5C 47.5,56.1667 47.5,55.8333 47.5,55.5C 47.5,54.1667 47.5,52.8333 47.5,51.5C 47.7947,49.2646 47.4614,47.2646 46.5,45.5C 46.5,44.5 46.5,43.5 46.5,42.5 Z"/></g>
<g><path style="opacity:1" fill="#771814" d="M 73.5,45.5 C 75.1667,45.5 76.8333,45.5 78.5,45.5C 78.5,48.5 78.5,51.5 78.5,54.5C 77.5269,52.0521 77.1936,49.3854 77.5,46.5C 76.5,46.5 75.5,46.5 74.5,46.5C 74.5,48.8333 74.5,51.1667 74.5,53.5C 73.8571,55.0764 72.8571,56.4097 71.5,57.5C 70.5,57.5 69.5,57.5 68.5,57.5C 69.2625,56.7321 70.2625,56.2321 71.5,56C 72.7383,55.31 72.7383,54.81 71.5,54.5C 73.1675,52.5214 73.8342,50.188 73.5,47.5C 73.5,46.8333 73.5,46.1667 73.5,45.5 Z"/></g>
<g><path style="opacity:1" fill="#200604" d="M 45.5,51.5 C 44.0821,53.3079 42.0821,53.9746 39.5,53.5C 40.9179,51.6921 42.9179,51.0254 45.5,51.5 Z"/></g>
<g><path style="opacity:1" fill="#3c2d2f" d="M 52.5,45.5 C 54.6074,46.4682 56.9407,46.8016 59.5,46.5C 59.3398,48.1992 59.5065,49.8659 60,51.5C 61.0386,50.7562 61.5386,49.7562 61.5,48.5C 64.0417,49.6244 66.7084,50.4577 69.5,51C 66.7737,51.1816 64.1071,51.6816 61.5,52.5C 64.2343,55.6572 67.5676,56.3238 71.5,54.5C 72.7383,54.81 72.7383,55.31 71.5,56C 70.2625,56.2321 69.2625,56.7321 68.5,57.5C 65.2613,57.5871 62.2613,56.9205 59.5,55.5C 59.5,54.5 59.5,53.5 59.5,52.5C 56.7531,52.8134 54.0865,52.48 51.5,51.5C 53.7427,50.5258 56.076,50.1924 58.5,50.5C 58.5,49.5 58.5,48.5 58.5,47.5C 56.076,47.8076 53.7427,47.4742 51.5,46.5C 51.6236,45.8933 51.9569,45.56 52.5,45.5 Z"/></g>
<g><path style="opacity:1" fill="#9c0d11" d="M 45.5,51.5 C 45.8333,51.5 46.1667,51.5 46.5,51.5C 46.8333,51.5 47.1667,51.5 47.5,51.5C 47.5,52.8333 47.5,54.1667 47.5,55.5C 44.2844,53.9866 41.6178,54.6533 39.5,57.5C 39.5,56.1667 39.5,54.8333 39.5,53.5C 42.0821,53.9746 44.0821,53.3079 45.5,51.5 Z"/></g>
<g><path style="opacity:1" fill="#8e0c13" d="M 89.5,54.5 C 89.5,54.1667 89.5,53.8333 89.5,53.5C 93.7426,53.9775 97.7426,54.3108 101.5,54.5C 100.624,54.3691 99.9569,54.7025 99.5,55.5C 101.291,56.1698 102.958,56.8365 104.5,57.5C 100.167,57.5 95.8333,57.5 91.5,57.5C 95.2806,55.3495 94.6139,54.3495 89.5,54.5 Z"/></g>
<g><path style="opacity:1" fill="#341a1a" d="M 99.5,44.5 C 102.072,46.5679 105.072,47.9013 108.5,48.5C 105.482,48.9534 102.482,49.2867 99.5,49.5C 99.9767,50.4776 100.643,51.3109 101.5,52C 105.362,52.7577 109.028,52.2577 112.5,50.5C 112.573,52.0269 111.906,53.0269 110.5,53.5C 107.57,54.299 104.57,54.6323 101.5,54.5C 97.7426,54.3108 93.7426,53.9775 89.5,53.5C 89.9704,52.3065 90.9704,51.6399 92.5,51.5C 98.6484,53.9938 100.315,52.6605 97.5,47.5C 99.0481,47.1788 99.7148,46.1788 99.5,44.5 Z"/></g>
<g><path style="opacity:1" fill="#ea070a" d="M 116.5,83.5 C 113.778,80.9446 113.111,77.9446 114.5,74.5C 115.641,71.3601 115.808,68.0267 115,64.5C 113.293,62.9625 111.793,61.2959 110.5,59.5C 109.653,58.0337 108.32,57.2004 106.5,57C 108.093,56.0513 109.426,54.8846 110.5,53.5C 111.906,53.0269 112.573,52.0269 112.5,50.5C 116.518,39.6816 112.851,35.515 101.5,38C 100.944,38.3826 100.611,38.8826 100.5,39.5C 99.5178,40.1408 98.5178,40.8075 97.5,41.5C 95.8595,38.2776 93.1928,36.9443 89.5,37.5C 90.6085,36.71 91.9419,36.21 93.5,36C 93.1667,35.6667 92.8333,35.3333 92.5,35C 94.0349,34.5038 95.5349,34.6705 97,35.5C 97.9503,34.9777 98.7836,34.311 99.5,33.5C 99.9106,34.2624 100.077,35.2624 100,36.5C 101.333,35.8333 102.333,34.8333 103,33.5C 105.069,34.2638 107.236,34.7638 109.5,35C 109.167,35.3333 108.833,35.6667 108.5,36C 110.676,36.1629 112.509,36.9963 114,38.5C 114.497,41.146 114.664,43.8127 114.5,46.5C 115.5,46.5 116.5,46.5 117.5,46.5C 116.241,49.366 115.241,52.366 114.5,55.5C 115.873,55.3433 117.207,55.51 118.5,56C 113.883,55.9208 112.716,57.7541 115,61.5C 115.333,60.8333 115.667,60.1667 116,59.5C 116.333,61.5 116.667,63.5 117,65.5C 117.333,64.8333 117.667,64.1667 118,63.5C 120.418,68.9661 119.585,73.9661 115.5,78.5C 116.309,80.0709 116.643,81.7376 116.5,83.5 Z"/></g>
<g><path style="opacity:1" fill="#300e05" d="M 85.5,53.5 C 86.8333,53.5 88.1667,53.5 89.5,53.5C 89.5,53.8333 89.5,54.1667 89.5,54.5C 89.0831,55.1239 88.4164,55.4573 87.5,55.5C 86.2867,55.2528 85.62,54.5862 85.5,53.5 Z"/></g>
<g><path style="opacity:1" fill="#2d0600" d="M 57.5,55.5 C 58.1667,55.5 58.8333,55.5 59.5,55.5C 59.6716,56.4916 59.3382,57.1583 58.5,57.5C 54.6839,57.7874 51.0173,57.7874 47.5,57.5C 47.5,57.1667 47.5,56.8333 47.5,56.5C 51.0419,56.8128 54.3752,56.4794 57.5,55.5 Z"/></g>
<g><path style="opacity:1" fill="#bd1418" d="M 86.5,47.5 C 86.1667,49.5 85.8333,51.5 85.5,53.5C 85.62,54.5862 86.2867,55.2528 87.5,55.5C 88.4164,55.4573 89.0831,55.1239 89.5,54.5C 94.6139,54.3495 95.2806,55.3495 91.5,57.5C 88.0314,57.5465 84.698,58.2132 81.5,59.5C 81.6107,58.8826 81.944,58.3826 82.5,58C 80.324,57.8371 78.4907,57.0037 77,55.5C 76.6667,52.8333 76.3333,50.1667 76,47.5C 75.8091,49.7078 75.3091,51.7078 74.5,53.5C 74.5,51.1667 74.5,48.8333 74.5,46.5C 75.5,46.5 76.5,46.5 77.5,46.5C 77.1936,49.3854 77.5269,52.0521 78.5,54.5C 79.8499,57.106 81.3499,57.106 83,54.5C 83.498,51.5184 83.6646,48.5184 83.5,45.5C 85.1788,45.2852 86.1788,45.9519 86.5,47.5 Z"/></g>
<g><path style="opacity:1" fill="#bc1418" d="M 110.5,53.5 C 109.426,54.8846 108.093,56.0513 106.5,57C 108.32,57.2004 109.653,58.0337 110.5,59.5C 108.421,59.0293 106.421,58.3627 104.5,57.5C 102.958,56.8365 101.291,56.1698 99.5,55.5C 99.9569,54.7025 100.624,54.3691 101.5,54.5C 104.57,54.6323 107.57,54.299 110.5,53.5 Z"/></g>
<g><path style="opacity:1" fill="#260d0a" d="M 91.5,57.5 C 95.8333,57.5 100.167,57.5 104.5,57.5C 106.421,58.3627 108.421,59.0293 110.5,59.5C 111.793,61.2959 113.293,62.9625 115,64.5C 115.808,68.0267 115.641,71.3601 114.5,74.5C 114.665,71.4816 114.498,68.4816 114,65.5C 113.617,64.944 113.117,64.6107 112.5,64.5C 110.315,62.2384 107.648,60.7384 104.5,60C 96.652,58.9118 88.9853,59.5785 81.5,62C 78.9774,63.3597 76.9774,65.193 75.5,67.5C 74.209,67.7373 73.209,67.404 72.5,66.5C 74.5,66.5 75.5,65.5 75.5,63.5C 77.2459,61.7484 79.2459,60.4151 81.5,59.5C 84.698,58.2132 88.0314,57.5465 91.5,57.5 Z"/></g>
<g><path style="opacity:1" fill="#4a0400" d="M 35.5,57.5 C 36.8333,57.5 38.1667,57.5 39.5,57.5C 39.38,58.5862 38.7133,59.2528 37.5,59.5C 36.2867,59.2528 35.62,58.5862 35.5,57.5 Z"/></g>
<g><path style="opacity:1" fill="#951113" d="M 47.5,57.5 C 51.0173,57.7874 54.6839,57.7874 58.5,57.5C 57.7375,58.2679 56.7375,58.7679 55.5,59C 60.8229,59.4994 66.1563,59.666 71.5,59.5C 71.5,59.8333 71.5,60.1667 71.5,60.5C 63.4754,60.3903 55.4754,60.7237 47.5,61.5C 47.5,60.1667 47.5,58.8333 47.5,57.5 Z"/></g>
<g><path style="opacity:1" fill="#ca111a" d="M 59.5,55.5 C 62.2613,56.9205 65.2613,57.5871 68.5,57.5C 69.5,57.5 70.5,57.5 71.5,57.5C 71.5,58.1667 71.5,58.8333 71.5,59.5C 66.1563,59.666 60.8229,59.4994 55.5,59C 56.7375,58.7679 57.7375,58.2679 58.5,57.5C 59.3382,57.1583 59.6716,56.4916 59.5,55.5 Z"/></g>
<g><path style="opacity:1" fill="#e9080c" d="M 81.5,59.5 C 79.2459,60.4151 77.2459,61.7484 75.5,63.5C 74.2223,63.2178 73.2223,62.5511 72.5,61.5C 72.5,60.8333 72.1667,60.5 71.5,60.5C 71.5,60.1667 71.5,59.8333 71.5,59.5C 71.5,58.8333 71.5,58.1667 71.5,57.5C 72.8571,56.4097 73.8571,55.0764 74.5,53.5C 75.3091,51.7078 75.8091,49.7078 76,47.5C 76.3333,50.1667 76.6667,52.8333 77,55.5C 78.4907,57.0037 80.324,57.8371 82.5,58C 81.944,58.3826 81.6107,58.8826 81.5,59.5 Z"/></g>
<g><path style="opacity:1" fill="#f5f5f5" d="M 112.5,64.5 C 113.265,67.0961 113.599,69.7628 113.5,72.5C 110.807,72.5715 108.14,72.9049 105.5,73.5C 100.211,70.6378 94.544,69.8045 88.5,71C 86.6063,72.0793 86.273,73.4126 87.5,75C 93.5273,75.4267 99.5273,76.0934 105.5,77C 113.23,79.9588 116.063,85.4588 114,93.5C 112.098,98.4005 108.598,101.567 103.5,103C 96.8669,104.22 90.2002,104.553 83.5,104C 76.5662,101.65 73.8996,97.15 75.5,90.5C 78.8499,90.335 82.1832,90.5017 85.5,91C 87.346,92.9991 89.6794,93.8324 92.5,93.5C 95.567,93.3934 98.567,92.8934 101.5,92C 102.833,91 102.833,90 101.5,89C 95.4611,88.6635 89.4611,87.9968 83.5,87C 81.3083,86.074 79.3083,84.9073 77.5,83.5C 74.3381,78.5697 73.6715,73.2364 75.5,67.5C 76.9774,65.193 78.9774,63.3597 81.5,62C 88.9853,59.5785 96.652,58.9118 104.5,60C 107.648,60.7384 110.315,62.2384 112.5,64.5 Z"/></g>
<g><path style="opacity:1" fill="#680606" d="M 40.5,61.5 C 38.2854,62.2679 35.9521,62.9346 33.5,63.5C 35.2789,61.6565 37.6122,60.9898 40.5,61.5 Z"/></g>
<g><path style="opacity:1" fill="#8c111c" d="M 72.5,61.5 C 73.2223,62.5511 74.2223,63.2178 75.5,63.5C 75.5,65.5 74.5,66.5 72.5,66.5C 72.5,64.8333 72.5,63.1667 72.5,61.5 Z"/></g>
<g><path style="opacity:1" fill="#180b0a" d="M 71.5,60.5 C 72.1667,60.5 72.5,60.8333 72.5,61.5C 72.5,63.1667 72.5,64.8333 72.5,66.5C 73.209,67.404 74.209,67.7373 75.5,67.5C 73.6715,73.2364 74.3381,78.5697 77.5,83.5C 76.7321,85.7146 76.0654,88.0479 75.5,90.5C 73.8996,97.15 76.5662,101.65 83.5,104C 90.2002,104.553 96.8669,104.22 103.5,103C 108.598,101.567 112.098,98.4005 114,93.5C 116.063,85.4588 113.23,79.9588 105.5,77C 99.5273,76.0934 93.5273,75.4267 87.5,75C 86.273,73.4126 86.6063,72.0793 88.5,71C 94.544,69.8045 100.211,70.6378 105.5,73.5C 108.14,72.9049 110.807,72.5715 113.5,72.5C 113.599,69.7628 113.265,67.0961 112.5,64.5C 113.117,64.6107 113.617,64.944 114,65.5C 114.498,68.4816 114.665,71.4816 114.5,74.5C 113.111,77.9446 113.778,80.9446 116.5,83.5C 116.748,89.7414 115.748,95.7414 113.5,101.5C 112.326,102.514 111.66,103.847 111.5,105.5C 106.446,108.423 101.113,110.423 95.5,111.5C 88.3756,112.453 82.0423,110.786 76.5,106.5C 76.1433,104.411 75.4767,102.411 74.5,100.5C 72.5245,104.341 70.8579,108.341 69.5,112.5C 65.03,113.486 60.3633,113.819 55.5,113.5C 48.8144,113.527 42.1477,113.861 35.5,114.5C 35.8495,111.955 35.0162,109.955 33,108.5C 32.501,104.179 32.3343,99.8461 32.5,95.5C 34.8333,92.8333 37.1667,90.1667 39.5,87.5C 40.4959,87.5858 41.3292,87.2524 42,86.5C 42.4017,85.1279 42.9017,83.7946 43.5,82.5C 40.9135,81.52 38.2469,81.1866 35.5,81.5C 35.8719,78.9783 35.0386,76.9783 33,75.5C 32.1881,71.3112 32.3547,67.3112 33.5,63.5C 35.9521,62.9346 38.2854,62.2679 40.5,61.5C 42.8333,61.5 45.1667,61.5 47.5,61.5C 55.4754,60.7237 63.4754,60.3903 71.5,60.5 Z"/></g>
<g><path style="opacity:1" fill="#7d7e7b" d="M 35.5,64.5 C 35.5,67.8333 35.5,71.1667 35.5,74.5C 36.8333,74.5 38.1667,74.5 39.5,74.5C 38.0813,75.4511 36.4147,75.7845 34.5,75.5C 34.185,71.6286 34.5184,67.9619 35.5,64.5 Z"/></g>
<g><path style="opacity:1" fill="#f4f5f4" d="M 39.5,74.5 C 38.1667,74.5 36.8333,74.5 35.5,74.5C 35.5,71.1667 35.5,67.8333 35.5,64.5C 47.1003,63.1333 58.767,62.4666 70.5,62.5C 70.6653,66.1817 70.4986,69.8484 70,73.5C 63.715,80.5734 57.5484,87.7401 51.5,95C 57.8116,94.892 64.145,94.7254 70.5,94.5C 70.5,98.1667 70.5,101.833 70.5,105.5C 58.4894,106.001 46.4894,106.667 34.5,107.5C 34.3347,103.818 34.5014,100.152 35,96.5C 41.8543,89.2802 48.3543,81.7802 54.5,74C 49.5116,73.9134 44.5116,74.0801 39.5,74.5 Z"/></g>
<g><path style="opacity:1" fill="#810b12" d="M 35.5,81.5 C 38.2469,81.1866 40.9135,81.52 43.5,82.5C 42.9017,83.7946 42.4017,85.1279 42,86.5C 41.3292,87.2524 40.4959,87.5858 39.5,87.5C 39.8333,86.8333 40.1667,86.1667 40.5,85.5C 41.404,84.791 41.7373,83.791 41.5,82.5C 39.2646,82.7947 37.2646,82.4614 35.5,81.5 Z"/></g>
<g><path style="opacity:1" fill="#ba1317" d="M 70.5,76.5 C 78.8599,87.847 75.8599,93.1804 61.5,92.5C 62.8817,87.5955 65.715,83.5955 70,80.5C 70.49,79.2068 70.6567,77.8734 70.5,76.5 Z"/></g>
<g><path style="opacity:1" fill="#f60405" d="M 68.5,83.5 C 69.8333,83.5 71.1667,83.5 72.5,83.5C 73.5184,90.232 70.8517,92.232 64.5,89.5C 65.4671,87.2099 66.8004,85.2099 68.5,83.5 Z"/></g>
<g><path style="opacity:1" fill="#111111" d="M 77.5,83.5 C 79.3083,84.9073 81.3083,86.074 83.5,87C 89.4611,87.9968 95.4611,88.6635 101.5,89C 102.833,90 102.833,91 101.5,92C 98.567,92.8934 95.567,93.3934 92.5,93.5C 89.6794,93.8324 87.346,92.9991 85.5,91C 82.1832,90.5017 78.8499,90.335 75.5,90.5C 76.0654,88.0479 76.7321,85.7146 77.5,83.5 Z"/></g>
<g><path style="opacity:1" fill="#a31011" d="M 116.5,83.5 C 118.257,89.8988 117.257,95.8988 113.5,101.5C 115.748,95.7414 116.748,89.7414 116.5,83.5 Z"/></g>
<g><path style="opacity:1" fill="#b31315" d="M 76.5,106.5 C 75.0695,106.421 73.7362,106.754 72.5,107.5C 71.9986,109.655 70.9986,111.322 69.5,112.5C 70.8579,108.341 72.5245,104.341 74.5,100.5C 75.4767,102.411 76.1433,104.411 76.5,106.5 Z"/></g>
<g><path style="opacity:1" fill="#92080d" d="M 111.5,105.5 C 110.977,107.708 109.644,109.208 107.5,110C 103.534,110.828 99.534,111.328 95.5,111.5C 101.113,110.423 106.446,108.423 111.5,105.5 Z"/></g>
<g><path style="opacity:1" fill="#af1115" d="M 32.5,95.5 C 32.3343,99.8461 32.501,104.179 33,108.5C 35.0162,109.955 35.8495,111.955 35.5,114.5C 33.9032,113.263 32.7365,111.596 32,109.5C 31.1849,104.648 31.3516,99.9811 32.5,95.5 Z"/></g>
<g><path style="opacity:1" fill="#a20a08" d="M 76.5,106.5 C 82.0423,110.786 88.3756,112.453 95.5,111.5C 89.8179,112.969 84.1513,112.469 78.5,110C 77.1772,109.184 76.5106,108.017 76.5,106.5 Z"/></g>
<g><path style="opacity:1" fill="#a80e0f" d="M 55.5,113.5 C 48.8753,115.285 42.2086,115.619 35.5,114.5C 42.1477,113.861 48.8144,113.527 55.5,113.5 Z"/></g>
</svg>
